<?xml version="1.0" standalone="no"?><!DOCTYPE svg PUBLIC "-//W3C//DTD SVG 1.1//EN" "http://www.w3.org/Graphics/SVG/1.1/DTD/svg11.dtd" ><svg xmlns="http://www.w3.org/2000/svg"><metadata></metadata><defs><font id="fonteditor" horiz-adv-x="256"><font-face font-family="e¹kcNÿ[{OS" font-weight="400" font-stretch="normal" units-per-em="256" panose-1="3 0 5 9 0 0 0 0 0 0" ascent="226" descent="-62" x-height="0" bbox="13 -34 243 212" underline-thickness="0" underline-position="0" unicode-range="U+3002-ff0c" /><missing-glyph horiz-adv-x="256"  /><glyph glyph-name="uni3002" unicode="&#x3002;" d="M64 41 Q37 40 35 13 Q37 -14 64 -15 Q91 -14 93 13 Q91 40 64 41 ZM64 -21 Q32 -19 30 12 Q32 44 64 46 Q96 44 99 12 Q96 -19 64 -21 Z" /><glyph glyph-name="uni4E0D" unicode="&#x4e0d;" d="M211 194 Q220 188 226 181 Q217 181 185 178 Q155 175 151 175 L162 159 Q158 160 127 122 Q140 110 140 108 Q140 108 139 106 Q135 99 135 84 L136 7 Q136 -21 132 -21 Q125 -15 119 1 Q119 1 120 2 Q126 11 126 29 L125 89 Q125 90 125 92 Q126 110 123 116 Q80 68 24 36 L22 40 Q22 40 25 42 Q64 67 102 107 Q135 143 148 175 Q72 167 51 161 Q49 161 49 161 Q41 164 34 171 Q45 172 66 174 Q84 175 121 179 Q190 187 209 194 Q211 194 211 194 ZM156 112 Q184 99 214 80 Q218 78 220 69 Q222 56 220 53 Q219 53 211 61 Q184 88 153 109 L156 112 Z" /><glyph glyph-name="uni4E7E" unicode="&#x4e7e;" d="M153 209 Q168 193 167 192 Q163 188 161 182 Q161 181 159 177 Q154 163 148 141 Q208 150 211 155 Q226 146 224 145 Q158 137 145 134 Q140 119 129 96 Q163 101 177 105 Q180 105 187 115 Q199 104 199 103 Q192 99 189 94 Q154 39 144 7 Q142 -7 171 -10 Q200 -12 218 -6 Q219 -6 220 1 Q220 6 220 38 L223 38 Q226 19 232 -5 Q233 -12 233 -12 Q228 -15 204 -17 Q181 -19 167 -17 Q133 -13 136 8 Q136 15 179 98 Q164 95 148 91 Q139 88 139 89 Q136 90 129 95 Q128 94 126 91 Q124 88 123 87 L120 88 Q133 114 145 160 Q154 195 149 208 L153 209 ZM76 208 Q91 194 91 193 Q91 192 90 189 Q88 185 87 182 Q85 174 85 164 Q110 169 120 173 Q121 173 121 173 Q125 172 132 164 Q112 161 84 157 L82 132 L104 136 Q105 136 108 141 Q111 145 111 145 Q122 136 122 135 Q117 131 116 128 Q112 106 110 84 Q117 79 118 76 Q100 73 82 70 Q88 66 88 64 Q88 63 87 60 Q85 52 85 43 Q121 50 123 52 Q128 50 136 43 Q111 40 85 36 Q85 -35 83 -30 Q80 -30 72 -11 Q72 -11 73 -10 Q77 -3 77 6 Q77 16 77 35 L30 26 Q18 33 19 33 Q47 37 77 42 Q77 65 75 69 L58 66 Q58 53 56 53 Q50 61 46 71 Q49 74 49 86 Q49 120 46 141 L49 141 L55 127 L74 130 L76 156 Q49 153 36 149 Q34 149 34 149 Q28 153 24 156 Q39 158 77 164 Q78 192 74 206 L76 208 ZM106 129 L55 121 L56 99 Q79 104 88 108 Q89 109 90 109 L99 102 L56 93 L57 72 L101 81 L106 129 Z" /><glyph glyph-name="uni4EBA" unicode="&#x4eba;" d="M120 202 Q141 184 141 182 Q141 182 140 181 Q134 175 132 166 Q130 156 126 139 Q123 129 122 125 Q124 122 129 114 Q170 48 193 15 Q211 -4 241 -7 L241 -10 Q208 -12 196 -13 Q195 -13 190 -4 Q165 41 119 116 Q107 70 80 36 Q57 6 19 -20 L17 -17 Q68 20 96 78 Q113 114 120 163 Q123 187 118 201 L120 202 Z" /><glyph glyph-name="uni53EA" unicode="&#x53ea;" d="M176 188 Q186 181 189 176 Q185 173 183 171 Q180 167 170 113 Q169 109 169 108 Q182 100 178 99 Q111 92 90 89 L90 76 L87 76 Q77 87 77 91 Q77 92 78 95 Q81 104 81 109 Q81 113 80 123 Q77 161 72 185 L75 185 L84 169 Q147 174 168 177 Q169 178 173 184 Q176 188 176 188 ZM171 170 L85 161 Q86 148 86 133 Q87 115 89 97 Q149 103 161 105 L171 170 ZM100 78 Q101 76 103 73 Q111 59 111 57 Q111 57 110 56 Q101 51 92 40 Q60 4 29 -15 L27 -11 Q95 44 98 77 L100 78 ZM148 74 Q190 38 204 24 Q208 14 203 -2 Q202 -2 194 8 Q172 39 145 71 L148 74 Z" /><glyph glyph-name="uni5764" unicode="&#x5764;" d="M154 208 Q155 207 161 202 Q172 194 172 193 Q172 192 171 190 Q166 180 166 166 Q166 156 166 142 Q173 143 187 146 Q201 148 205 149 Q207 149 212 155 Q214 158 214 158 Q222 153 227 148 Q227 148 225 145 Q218 139 218 136 Q218 131 217 121 Q211 43 206 45 Q205 45 199 61 Q175 58 166 56 L167 -8 Q167 -32 165 -32 Q158 -25 153 -13 Q153 -13 154 -10 Q157 -2 158 8 Q158 41 158 55 Q138 52 125 49 Q125 28 123 28 Q119 32 114 45 Q114 45 114 46 Q116 53 116 71 Q116 132 110 154 L113 154 L122 136 Q151 140 158 141 L158 167 Q156 196 152 206 Q152 207 153 207 Q154 208 154 208 ZM62 207 Q80 193 80 191 Q80 190 79 188 Q75 177 75 161 L76 116 Q87 118 95 121 Q96 122 96 122 Q108 116 106 114 Q76 108 76 108 L76 48 L107 63 L108 60 Q105 58 95 52 Q57 29 50 24 Q36 16 35 14 Q36 15 36 15 Q26 16 18 21 Q18 22 24 24 Q43 32 67 44 L67 107 Q57 105 45 101 Q37 99 35 99 Q24 105 26 106 Q61 112 67 114 L66 177 Q65 193 60 205 L62 207 ZM209 142 L166 136 L166 104 Q178 106 187 110 Q189 111 189 111 Q201 104 199 102 Q190 101 166 98 L166 63 Q178 65 190 69 Q193 70 194 70 Q194 70 196 68 Q199 65 201 65 Q207 75 209 142 ZM158 134 L122 127 L123 97 Q134 98 158 103 L158 134 ZM123 95 L125 56 Q136 58 158 62 L158 96 Q132 91 133 91 Q130 92 123 95 Z" /><glyph glyph-name="uni58A8" unicode="&#x58a8;" d="M190 204 Q196 201 202 194 Q196 189 196 187 Q196 187 196 186 Q191 167 189 152 Q198 145 195 144 L130 138 L130 117 Q162 120 177 124 Q181 125 181 124 Q188 118 188 116 Q176 116 130 110 L130 93 Q190 98 206 104 Q207 104 207 104 Q217 96 217 94 Q198 93 145 88 Q116 85 101 84 Q70 81 48 77 Q45 77 45 77 Q35 84 34 85 Q35 85 40 85 Q70 86 121 92 L121 110 Q97 107 81 104 Q75 103 75 104 Q65 110 66 111 Q83 112 121 116 L121 137 L74 132 Q74 124 73 122 Q65 127 62 133 Q62 134 63 135 Q66 140 66 150 Q65 183 61 199 L63 199 L71 183 L183 195 Q185 198 190 204 ZM185 188 L155 185 Q165 173 165 172 Q165 171 163 169 Q155 162 146 146 L180 150 L185 188 ZM152 185 L130 183 L130 144 L140 146 Q152 164 152 185 ZM121 182 L72 177 L73 138 L99 141 Q92 159 85 169 L87 171 Q103 161 105 156 Q106 154 100 141 L121 143 L121 182 ZM178 82 Q207 60 212 54 Q213 39 209 35 Q202 45 188 63 Q180 73 175 79 L178 82 ZM137 78 Q151 68 158 59 Q157 44 152 43 Q150 45 145 57 Q139 70 135 77 L137 78 ZM90 73 Q101 57 103 51 Q98 38 95 38 Q94 44 91 55 Q88 68 87 72 L90 73 ZM57 71 L60 71 Q60 39 42 26 Q41 27 40 42 Q53 47 57 71 ZM117 67 Q133 55 133 53 Q133 53 132 51 Q128 44 129 28 Q161 32 175 36 Q178 37 179 37 Q190 30 189 27 Q170 25 128 21 L128 -2 Q170 0 198 3 Q204 4 205 4 Q218 -5 214 -5 Q118 -10 59 -16 Q50 -17 49 -17 Q36 -12 36 -8 Q54 -8 120 -3 L120 21 Q105 19 87 17 Q72 15 72 16 Q61 22 62 23 Q63 24 73 24 Q96 25 120 28 Q121 56 116 65 L117 67 Z" /><glyph glyph-name="uni5934" unicode="&#x5934;" d="M136 207 Q158 189 158 188 Q158 188 157 187 Q152 177 150 161 Q145 111 140 81 Q170 84 189 87 Q209 91 218 94 Q219 94 219 94 Q235 85 234 83 L138 74 Q128 38 104 14 Q74 -11 29 -26 L28 -23 Q29 -22 31 -21 Q71 -3 91 14 Q118 37 128 73 Q66 65 48 61 Q47 61 47 61 Q38 66 34 72 Q93 76 130 80 Q137 107 139 173 Q140 188 134 205 Q133 206 136 207 ZM80 181 Q107 165 117 159 Q120 149 116 136 Q115 136 111 141 Q98 160 78 178 Q79 180 80 181 ZM62 139 Q93 123 102 118 Q111 108 104 92 Q103 92 100 97 Q82 119 60 136 Q60 139 62 139 ZM138 51 Q190 23 207 12 Q211 9 212 -1 Q214 -15 212 -17 Q211 -17 205 -10 Q174 21 137 48 L138 51 Z" /><glyph glyph-name="uni5938" unicode="&#x5938;" d="M126 209 Q136 196 139 189 Q139 189 138 188 Q131 181 118 157 Q189 164 205 170 Q206 170 206 170 Q210 168 218 159 Q219 158 217 158 Q217 158 213 158 Q190 157 146 152 Q182 109 199 95 Q217 82 241 83 L241 79 Q237 78 231 77 Q202 73 203 74 Q200 75 137 151 L112 149 Q75 92 18 57 L15 61 Q66 95 101 148 Q68 145 50 140 Q47 140 47 140 Q44 142 40 145 Q33 149 35 150 Q35 151 42 151 Q67 152 106 156 Q124 189 123 207 L126 209 ZM147 118 Q152 116 157 110 Q156 109 149 108 Q136 107 124 105 Q122 105 118 104 Q101 100 99 101 Q96 103 93 105 Q88 108 89 108 Q89 108 92 108 Q104 108 121 111 Q137 114 145 117 Q146 118 147 118 ZM175 88 Q186 81 188 78 Q187 77 173 76 Q144 73 114 70 L102 43 L156 51 Q159 53 163 56 Q165 58 166 58 Q173 52 176 46 Q171 42 168 39 Q167 38 163 27 Q159 15 156 9 Q142 -23 133 -28 Q133 -28 130 -24 Q116 -7 101 5 L104 8 Q107 6 111 3 Q132 -11 134 -10 Q148 4 157 42 Q147 41 150 41 Q109 37 103 35 Q102 35 98 32 Q95 29 94 29 Q88 33 84 39 Q84 39 85 40 Q89 43 92 47 Q96 51 102 69 Q81 66 69 62 Q66 61 66 61 Q64 63 60 65 Q52 71 54 71 Q54 72 62 72 Q86 74 116 78 Q161 84 174 88 Q175 88 175 88 Z" /><glyph glyph-name="uni597D" unicode="&#x597d;" d="M72 209 Q73 208 75 206 Q86 192 86 190 Q86 189 84 185 Q81 180 80 178 Q79 175 78 169 Q74 149 69 123 Q94 127 102 130 Q104 145 102 151 L105 152 Q117 137 117 135 Q117 135 116 134 Q112 127 111 118 Q111 115 109 108 Q106 97 105 91 Q137 94 168 99 Q166 120 150 142 L153 144 Q161 136 167 129 Q177 143 196 174 Q147 168 128 163 Q126 163 126 163 Q114 169 114 172 Q155 175 193 181 Q197 182 202 191 Q204 194 204 194 L218 182 Q218 180 211 175 Q207 171 206 170 Q193 155 169 123 Q173 116 177 100 Q202 103 224 109 Q230 110 231 110 L243 100 Q197 96 178 92 Q183 65 181 19 Q179 -21 170 -29 Q170 -29 168 -27 Q155 -11 130 10 L132 13 Q156 -2 165 -6 Q170 -2 172 36 Q173 70 169 92 Q142 88 123 83 Q119 82 118 82 Q114 83 105 91 Q101 75 90 47 Q92 46 97 44 Q115 36 120 30 Q123 20 120 12 Q119 12 115 16 Q103 28 86 40 Q69 9 20 -18 L18 -14 Q60 12 79 44 Q59 55 47 60 L59 114 Q41 111 30 108 Q28 107 27 107 Q19 111 15 117 Q34 118 60 121 Q68 160 70 180 Q72 194 70 208 Q70 209 72 209 ZM102 122 L67 115 L57 63 Q75 55 83 51 Q98 85 102 122 Z" /><glyph glyph-name="uni5BB6" unicode="&#x5bb6;" d="M112 210 Q136 191 138 189 Q140 182 131 172 Q130 172 126 181 Q117 198 110 208 L112 210 ZM208 181 Q213 179 222 168 Q222 167 220 166 Q207 160 190 135 L187 137 Q196 155 199 164 Q162 161 59 149 Q55 126 49 119 Q47 122 42 136 Q42 136 43 137 Q52 146 55 176 L58 176 L59 156 L199 172 Q201 173 205 178 Q208 181 208 181 ZM169 139 Q177 136 181 130 Q173 129 163 128 Q148 126 138 124 Q122 112 114 106 Q129 87 135 71 Q174 99 180 116 Q180 116 181 116 Q182 117 182 116 Q189 104 189 99 Q189 99 188 98 Q180 96 170 88 Q155 78 149 73 Q186 31 201 23 Q211 15 240 13 L240 9 L196 5 L145 70 L137 65 Q141 39 141 23 Q137 -21 125 -27 Q122 -25 116 -19 Q100 -4 89 4 L91 6 Q95 4 108 -2 Q117 -7 119 -8 Q125 -10 129 14 Q133 38 129 56 Q76 8 25 -8 L24 -4 Q58 10 82 28 Q84 29 87 32 Q114 53 127 68 Q127 68 127 70 Q124 81 122 83 Q81 49 46 35 L45 38 Q84 60 117 91 Q111 101 109 102 Q80 83 49 70 L47 74 Q93 97 120 122 Q86 118 80 116 Q74 120 71 124 Q97 126 127 130 Q162 135 169 139 Z" /><glyph glyph-name="uni5F00" unicode="&#x5f00;" d="M197 194 Q206 190 213 181 Q213 181 209 181 Q188 181 155 178 Q167 167 169 163 Q164 152 165 112 Q211 114 220 119 Q221 119 221 119 Q233 113 234 108 Q234 108 226 107 Q200 106 165 104 L165 2 Q165 -24 163 -24 Q159 -21 149 -3 Q149 -3 150 -2 Q154 7 155 36 Q155 70 155 103 Q139 102 107 100 Q103 16 30 -17 L28 -14 Q93 20 99 99 Q49 95 35 91 Q34 91 34 91 Q31 93 28 96 Q19 102 21 102 Q21 102 25 102 Q49 103 99 107 Q102 137 102 149 Q102 159 100 173 Q80 170 66 168 Q63 168 63 168 Q62 169 60 170 Q50 177 52 178 Q52 178 56 178 Q80 179 122 183 Q185 189 196 194 Q197 194 197 194 ZM152 178 Q143 177 124 176 Q110 174 104 174 Q115 163 115 161 Q115 160 114 157 Q111 151 111 143 Q111 140 110 134 Q110 122 108 108 Q113 108 124 109 Q149 110 155 111 Q155 121 155 132 Q155 165 152 178 Z" /><glyph glyph-name="uni6211" unicode="&#x6211;" d="M127 211 Q131 208 138 202 Q146 196 146 195 Q146 195 146 194 Q140 178 145 129 Q173 134 189 139 Q192 140 192 140 Q206 132 205 130 Q191 128 146 121 Q152 78 157 60 Q171 76 178 88 Q183 97 185 106 Q184 105 185 108 L187 108 Q197 92 197 90 Q197 89 195 88 Q188 83 183 76 Q181 74 176 68 Q167 57 161 50 Q165 36 179 15 Q193 -1 213 -9 Q216 5 215 35 L219 36 Q222 11 227 -18 Q228 -27 228 -27 Q203 -20 185 -4 Q164 14 154 44 Q133 27 109 11 L106 15 Q133 33 151 52 Q141 88 138 119 L92 112 L92 76 Q110 83 122 89 L124 85 L92 69 Q92 33 93 6 Q93 -21 89 -21 Q89 -21 86 -18 Q70 -3 50 11 L52 14 Q75 2 81 0 Q84 0 84 23 Q84 42 84 66 Q64 56 47 46 Q41 43 40 43 Q28 46 22 50 Q22 51 28 52 Q52 59 83 72 L83 111 Q60 106 45 102 Q42 101 42 101 Q27 108 28 110 Q45 112 83 117 L83 158 Q49 144 34 140 L32 144 Q105 173 104 186 L106 186 Q107 184 110 181 Q117 173 117 172 Q105 168 92 162 L92 119 Q132 125 137 127 Q131 201 125 209 Q124 210 126 210 Q127 211 127 211 ZM164 187 Q171 183 183 176 Q191 171 195 169 Q197 158 192 148 Q191 148 187 154 Q175 171 162 184 L164 187 Z" /><glyph glyph-name="uni6735" unicode="&#x6735;" d="M94 203 L105 185 L145 191 Q148 193 153 203 Q162 197 167 192 Q167 191 162 186 Q156 183 157 150 Q156 125 175 127 Q193 127 203 133 Q205 134 205 134 Q217 127 219 123 Q213 120 180 119 Q147 117 149 144 Q149 173 149 183 L105 177 Q105 109 37 87 L35 90 Q77 110 86 134 Q98 163 92 202 L94 203 ZM116 130 L133 117 Q129 114 129 85 Q186 91 200 99 Q217 90 216 86 Q214 86 210 86 Q174 84 136 79 Q167 39 192 22 Q208 12 239 9 L239 5 Q201 3 189 2 Q187 3 129 77 Q129 61 129 -4 Q130 -28 127 -28 Q120 -24 115 -10 Q115 -9 116 -7 Q120 0 120 9 L120 68 Q100 42 71 17 Q48 0 28 -9 Q21 -13 17 -15 L16 -12 Q21 -9 28 -4 Q49 6 72 28 Q100 55 113 76 Q87 73 54 68 Q44 66 43 66 Q29 74 32 75 Q74 78 120 84 Q120 118 115 129 L116 130 Z" /><glyph glyph-name="uni6811" unicode="&#x6811;" d="M190 212 Q207 198 207 197 Q207 196 206 194 Q203 187 203 177 Q203 153 204 139 Q204 133 204 129 Q217 131 226 135 Q228 136 230 136 Q237 132 240 126 Q235 125 222 124 Q210 122 204 121 Q206 -41 197 -33 Q196 -33 189 -25 Q172 -8 156 4 L157 6 Q188 -12 191 -12 Q194 -13 194 12 Q195 24 195 47 Q195 66 195 120 Q180 118 161 114 L150 121 Q149 114 141 92 Q139 86 138 84 Q141 80 146 73 Q160 55 161 52 Q160 38 156 32 Q156 32 153 39 Q142 62 134 74 Q115 35 87 6 L84 7 Q117 49 129 83 Q120 97 105 118 L108 119 L132 92 Q142 121 145 147 Q144 148 139 147 Q136 147 110 141 L101 148 Q102 148 106 149 Q124 151 142 156 Q144 157 147 162 Q149 165 150 165 Q152 164 162 155 Q162 155 160 152 Q156 148 155 146 Q153 134 150 122 Q152 122 158 123 Q183 126 195 128 Q194 163 193 185 Q192 201 188 210 L190 212 ZM66 210 Q82 197 83 195 Q83 194 82 192 Q79 186 78 174 Q78 140 78 134 Q88 135 95 138 Q97 139 99 139 Q110 132 109 130 Q96 129 77 125 L76 107 Q101 94 105 91 Q106 78 103 75 Q103 75 100 78 Q90 91 76 102 Q75 70 75 27 Q74 -33 72 -27 Q67 -24 60 -8 Q60 -8 60 -7 Q66 -1 67 21 Q67 31 68 59 Q69 83 69 98 Q46 60 15 28 L13 30 Q59 88 69 124 Q52 122 37 119 Q32 118 31 118 L21 127 Q39 127 70 132 Q69 176 69 178 Q69 196 64 209 L66 210 ZM162 103 Q173 90 179 77 Q180 71 173 59 Q172 59 170 68 Q165 88 160 101 L162 103 Z" /><glyph glyph-name="uni6C14" unicode="&#x6c14;" d="M87 209 Q100 194 100 191 Q100 190 98 189 Q94 187 92 183 Q90 180 87 173 Q82 164 80 160 Q158 167 180 176 Q181 176 181 176 Q195 169 192 166 Q112 158 89 151 Q87 151 87 151 Q86 151 81 154 Q78 155 77 156 Q55 123 31 99 L28 100 Q52 125 73 166 Q85 192 84 207 L87 209 ZM156 140 Q167 134 167 131 Q105 124 84 119 Q82 119 82 119 Q75 122 72 127 Q136 132 155 140 Q156 140 156 140 ZM158 114 Q164 112 171 104 Q171 104 170 103 Q163 95 163 81 Q163 80 163 77 Q163 41 175 20 Q187 0 214 -9 Q218 -4 218 30 L221 30 Q222 16 225 -8 Q226 -24 226 -24 Q191 -18 169 11 Q153 35 153 97 Q76 86 59 80 Q58 80 58 80 Q48 84 45 90 Q92 94 151 105 Q152 105 156 111 Q158 114 158 114 Z" /><glyph glyph-name="uni6C60" unicode="&#x6c60;" d="M140 204 Q156 190 157 187 Q157 187 156 185 Q152 177 152 171 Q150 127 150 110 Q178 125 184 130 Q185 130 188 135 Q192 141 193 141 Q197 140 204 131 Q204 131 202 129 Q196 122 196 119 Q195 110 192 91 Q183 26 178 27 Q177 27 171 35 Q162 49 155 56 L157 59 Q158 58 161 55 Q173 45 175 46 Q179 52 186 121 Q167 111 150 101 Q150 72 150 48 Q150 13 147 14 Q140 21 137 33 Q142 41 142 49 Q142 78 142 97 Q139 95 115 80 Q116 41 116 28 Q116 -3 135 -6 Q152 -9 185 -7 Q211 -5 211 -1 Q211 1 211 11 Q212 35 212 49 L216 49 Q218 16 224 -7 Q225 -11 225 -11 Q221 -14 194 -16 Q171 -18 145 -17 Q112 -16 109 13 Q108 24 108 76 Q95 69 90 64 Q89 63 89 63 Q89 63 85 64 Q80 65 77 66 Q76 61 72 48 Q56 -12 55 -10 Q53 -10 34 6 Q29 11 26 14 L29 17 Q32 16 40 10 Q47 5 48 5 Q48 -2 71 65 Q79 90 84 105 L87 105 Q83 89 78 70 Q92 76 107 86 Q107 86 107 88 Q109 130 102 143 L105 145 Q120 129 120 126 Q120 126 120 125 Q115 118 115 90 Q134 102 142 106 L142 180 Q142 187 139 199 Q138 202 138 203 L140 204 ZM51 175 Q84 157 85 155 Q87 138 85 136 Q84 136 81 141 Q64 160 50 171 L51 175 ZM25 126 Q35 122 52 113 Q62 108 62 108 Q65 90 62 88 Q61 88 58 92 Q39 111 24 121 L25 126 Z" /><glyph glyph-name="uni6D17" unicode="&#x6d17;" d="M147 210 Q166 195 165 193 Q165 192 164 191 Q157 180 157 147 Q181 150 189 154 Q191 155 191 155 Q200 149 201 146 Q201 145 195 145 Q179 143 157 139 L157 97 Q200 100 213 106 Q214 107 214 107 Q228 98 225 96 Q224 96 218 95 Q197 94 162 90 Q172 80 172 78 Q172 77 171 76 Q167 71 167 63 L167 17 Q164 -8 185 -6 Q204 -7 216 -2 Q219 0 219 40 L223 40 Q225 12 230 -4 Q232 -8 231 -9 Q228 -14 195 -14 Q156 -19 158 14 L158 66 Q158 88 156 89 L134 87 Q143 77 143 76 Q143 75 141 73 Q137 68 134 58 Q119 4 63 -28 L61 -24 Q86 -7 108 20 Q126 49 130 86 Q107 84 97 81 Q96 81 96 81 Q83 87 86 89 Q96 89 149 96 L149 138 Q137 136 128 135 Q125 134 125 134 Q123 134 117 139 Q111 123 99 103 L96 105 Q106 124 113 151 Q119 178 116 188 L118 189 Q120 186 127 180 Q132 175 132 174 Q132 173 131 172 Q126 165 118 142 Q120 142 149 146 L149 180 Q149 181 148 187 Q147 205 144 208 L147 210 ZM50 181 Q74 170 81 162 Q83 156 79 143 Q78 143 74 149 Q63 166 49 178 L50 181 ZM31 126 Q54 116 60 111 Q62 96 59 92 Q58 92 54 97 Q42 113 29 123 L31 126 ZM82 120 L86 119 Q74 76 61 27 Q52 -7 51 -5 Q50 -5 43 2 Q32 14 25 21 L28 24 Q31 22 35 19 Q46 10 46 12 Q56 35 82 120 Z" /><glyph glyph-name="uni6DE1" unicode="&#x6de1;" d="M143 207 Q144 206 146 205 Q163 191 160 190 Q157 188 154 180 Q154 179 153 176 Q149 148 145 133 L147 131 Q179 155 188 167 Q194 173 195 180 L198 180 Q204 164 203 161 Q202 163 152 129 Q160 124 180 114 Q203 101 204 100 Q208 87 206 78 Q205 79 200 83 Q176 110 143 127 Q127 94 92 79 L91 82 Q121 97 135 131 Q143 150 145 171 Q146 195 141 205 L143 207 ZM51 181 Q53 180 62 175 Q80 165 81 164 Q82 148 79 143 Q78 143 74 150 Q62 167 49 179 L51 181 ZM100 174 Q122 158 127 150 Q126 135 122 132 Q121 133 119 138 Q108 161 98 172 L100 174 ZM30 126 Q31 125 35 123 Q59 110 60 108 Q62 90 58 88 Q58 88 56 91 Q45 107 28 122 L30 126 ZM86 111 L90 110 Q87 100 80 76 Q55 -8 52 -12 Q52 -13 48 -7 Q38 5 28 15 L31 17 Q32 17 33 16 Q46 6 47 8 Q60 39 86 111 ZM139 108 Q140 107 143 104 Q156 92 155 91 Q149 86 147 68 Q147 67 155 55 Q160 48 160 47 Q182 64 185 81 L188 81 Q193 69 194 63 Q194 62 191 61 Q177 55 163 42 Q201 -15 234 -12 L234 -16 L192 -17 Q164 28 146 57 Q136 -2 66 -25 L65 -21 Q142 5 140 90 Q140 101 137 106 L139 108 ZM101 73 Q108 69 122 53 Q123 52 123 52 Q123 45 117 34 Q116 34 113 43 Q106 61 99 72 L101 73 Z" /><glyph glyph-name="uni6E05" unicode="&#x6e05;" d="M151 209 Q162 201 166 196 Q166 195 165 193 Q162 187 162 181 Q161 172 161 163 Q188 167 202 171 Q206 172 206 171 Q220 164 218 162 Q177 157 161 156 L160 136 Q178 139 190 143 Q194 145 195 144 Q201 142 206 137 Q208 136 206 135 Q180 134 160 129 L160 112 Q203 117 219 122 Q221 122 222 122 Q237 115 236 112 Q172 108 103 96 Q96 95 95 95 Q94 96 89 99 Q85 101 84 102 Q54 -22 54 -8 Q54 -8 50 -3 Q38 12 26 24 L28 27 Q32 24 39 19 Q48 13 48 13 Q57 34 87 131 L91 130 Q90 127 89 121 Q86 110 85 103 Q100 103 151 111 L151 128 Q140 127 125 124 Q120 123 119 123 Q109 130 110 131 Q110 132 117 132 Q134 132 151 135 Q151 150 152 154 Q128 150 108 148 Q95 155 97 156 Q98 156 103 157 Q125 158 152 162 Q152 174 152 183 Q151 201 148 209 L151 209 ZM49 185 Q70 172 78 164 Q79 160 77 143 Q77 141 74 143 Q67 157 54 175 Q50 180 48 182 L49 185 ZM25 131 Q53 113 55 109 Q54 94 52 89 Q52 88 51 89 Q49 96 30 119 Q24 126 23 128 L25 131 ZM189 98 Q197 93 201 87 Q201 87 200 86 Q194 81 194 74 Q195 -2 195 -4 Q194 -29 189 -29 Q188 -29 181 -21 Q166 -3 155 6 L158 9 Q181 -6 184 -6 Q187 -13 186 44 Q185 67 185 82 L125 74 L125 59 Q157 62 166 66 Q168 67 169 67 Q180 61 178 59 Q176 59 165 57 Q137 54 126 52 L125 37 Q158 40 168 43 Q169 43 169 43 Q180 38 179 35 Q150 33 126 29 Q125 -6 124 -27 Q123 -29 122 -27 Q113 -14 113 -11 Q113 -10 114 -9 Q117 -3 117 6 L117 77 Q117 81 115 94 L118 95 Q124 84 125 81 L181 89 Q183 90 186 95 Q188 98 189 98 Z" /><glyph glyph-name="uni6EE1" unicode="&#x6ee1;" d="M166 207 Q183 196 183 194 Q183 194 182 192 Q177 184 174 164 Q200 166 208 171 Q209 171 209 171 Q219 165 220 162 Q220 161 213 161 Q195 159 172 156 Q167 141 163 130 L158 130 L164 155 L131 151 Q132 126 131 126 Q126 127 120 136 Q120 137 121 138 Q123 139 122 150 L93 146 Q83 155 85 154 Q85 155 88 155 Q102 155 122 158 Q122 160 122 164 Q122 168 121 170 Q118 190 112 200 L114 201 Q132 190 132 189 Q132 188 131 186 Q129 182 129 178 Q129 171 130 158 L165 163 Q165 164 166 167 Q168 181 168 188 Q168 201 164 205 L166 207 ZM45 184 Q71 169 73 165 Q72 148 70 147 Q69 147 64 154 Q52 171 43 181 L45 184 ZM214 132 Q226 126 228 121 Q228 121 225 121 Q207 120 175 116 Q175 111 174 103 Q173 91 173 87 Q178 88 187 89 Q198 90 198 91 Q200 93 202 97 Q204 100 204 100 Q211 96 215 89 Q215 89 213 87 Q210 83 210 82 Q210 81 209 59 Q207 16 205 1 Q201 -20 197 -23 Q196 -23 191 -17 Q180 -5 168 5 L170 7 Q189 -3 192 -3 Q200 2 200 84 Q196 84 190 83 Q172 81 172 80 Q171 73 170 63 Q170 66 169 58 Q188 45 189 43 Q190 30 186 26 Q185 26 182 31 Q174 45 167 52 Q159 27 143 7 L140 10 Q160 36 164 79 L136 76 L133 62 Q149 54 150 52 Q152 43 148 38 Q148 38 147 40 Q141 51 132 58 Q123 27 107 9 L104 10 Q104 -27 102 -23 Q98 -21 91 -8 Q91 -7 93 -4 Q95 0 95 1 Q95 46 94 61 Q94 83 90 92 L92 93 L101 78 L128 81 Q130 92 130 110 Q112 108 99 105 Q96 104 95 105 Q94 106 92 107 Q81 113 84 113 Q84 114 89 114 Q114 115 153 121 Q196 127 212 132 Q214 132 214 132 ZM27 121 Q56 109 58 105 Q60 90 57 85 Q56 85 54 89 Q42 104 25 118 L27 121 ZM166 115 Q151 114 139 112 Q138 109 138 97 Q137 87 137 82 L165 86 L166 115 ZM80 105 L84 103 Q76 77 65 38 Q50 -18 48 -13 Q47 -13 45 -10 Q37 0 25 12 L27 14 Q42 5 43 5 Q44 -1 80 105 ZM127 74 L102 71 L104 12 Q122 36 127 74 Z" /><glyph glyph-name="uni7559" unicode="&#x7559;" d="M117 207 Q123 190 122 188 Q122 188 119 187 Q114 186 112 185 Q101 179 72 162 Q67 159 65 158 L68 109 Q78 114 107 134 Q97 150 93 155 L95 157 Q114 142 127 128 Q126 118 122 111 Q121 109 120 111 Q118 115 114 122 Q111 127 110 130 Q107 127 99 121 Q78 104 71 98 Q69 97 66 93 Q64 91 63 91 Q55 95 51 99 Q59 104 59 109 Q59 133 55 165 Q54 169 52 177 Q51 181 51 183 L54 184 Q61 171 64 164 Q90 178 106 194 Q111 198 115 207 L117 207 ZM210 193 Q223 182 223 181 Q219 177 215 173 Q215 171 214 168 Q203 107 190 91 Q199 83 201 80 Q201 80 199 78 Q194 73 194 71 Q192 55 188 26 Q182 -18 180 -21 Q179 -23 179 -23 Q178 -23 177 -21 Q176 -17 172 -6 Q171 -5 171 -4 Q160 -2 83 -12 L83 -27 Q82 -29 80 -27 Q71 -16 69 -11 Q69 -10 70 -9 Q73 -3 73 7 Q73 13 72 29 Q71 48 71 56 Q69 74 66 86 L68 86 L79 70 Q177 80 182 82 Q185 84 187 89 Q186 90 181 96 Q161 118 159 119 L162 121 Q164 120 169 116 Q184 105 186 107 Q197 124 205 175 Q204 175 203 175 Q181 173 163 169 Q164 168 166 165 Q171 159 171 158 Q171 157 170 156 Q166 151 163 145 Q144 99 113 82 L112 85 Q140 107 154 150 Q157 159 157 169 Q148 167 141 165 Q137 163 137 164 Q125 169 125 172 Q125 172 129 172 Q154 174 203 183 Q205 186 208 190 Q210 193 210 193 ZM183 74 L133 68 L133 41 Q154 44 161 46 Q162 47 163 47 Q174 39 171 38 Q153 37 132 34 L133 0 Q150 2 160 4 Q163 5 164 5 Q166 5 173 -1 Q179 13 183 74 ZM124 67 Q104 66 79 62 Q79 47 83 -4 Q86 -4 91 -3 Q113 -1 124 0 L123 32 Q96 29 95 28 Q86 35 87 36 Q87 36 90 36 Q104 36 123 39 L124 67 Z" /><glyph glyph-name="uni75D5" unicode="&#x75d5;" d="M132 209 Q148 193 152 187 Q153 184 148 174 Q147 172 146 171 Q192 174 202 179 Q203 180 204 180 Q219 173 218 170 Q213 169 189 167 Q117 161 84 156 Q84 18 19 -28 L16 -25 Q60 17 69 77 Q46 61 32 49 Q29 47 29 47 Q29 47 25 50 Q15 54 16 55 Q17 56 20 57 Q37 65 71 85 Q75 110 75 133 Q75 169 73 181 L76 181 L84 164 L144 171 Q139 188 129 207 L132 209 ZM179 153 Q182 151 193 143 Q193 142 190 140 Q187 137 186 135 Q185 128 183 110 Q181 93 180 85 Q191 78 186 76 Q181 75 163 73 Q145 71 135 70 Q150 48 162 35 Q187 57 188 68 L190 68 Q193 61 196 53 Q196 52 194 51 Q182 45 165 30 Q184 6 205 -2 Q216 -7 238 -8 L238 -12 Q216 -14 193 -16 Q164 16 129 69 L112 66 L111 -1 Q107 -7 146 24 L148 21 Q118 -7 107 -20 Q106 -22 105 -22 Q91 -17 90 -15 Q90 -15 93 -13 Q101 -8 102 -5 Q105 10 105 100 Q105 122 103 151 L106 151 L112 135 L173 144 Q175 147 177 151 Q179 153 179 153 ZM31 142 Q51 129 58 120 Q59 111 55 103 Q55 102 49 111 Q37 131 29 140 L31 142 ZM176 138 L112 128 L112 105 Q146 110 155 114 Q156 115 157 115 Q168 107 165 106 Q157 105 136 102 Q121 99 112 98 L112 74 L172 82 L176 138 Z" /><glyph glyph-name="uni781A" unicode="&#x781a;" d="M123 198 L132 178 L190 184 Q192 186 195 190 Q197 193 197 193 Q199 192 210 183 Q210 183 208 181 Q202 174 202 171 Q202 167 201 157 Q197 57 193 60 Q189 64 184 78 Q184 78 184 80 Q188 90 189 107 Q189 114 190 130 Q192 159 193 176 L131 170 Q130 43 126 57 Q121 60 118 75 Q118 77 119 80 Q121 88 122 103 L122 176 Q122 181 120 197 L123 198 ZM105 175 Q113 171 116 165 Q106 165 73 160 Q74 158 78 155 Q81 152 80 152 Q80 152 79 151 Q71 142 55 115 L57 108 L89 114 Q90 115 91 117 Q94 123 95 123 Q101 121 107 115 Q107 114 105 111 Q101 106 100 103 Q98 90 94 65 Q96 64 99 61 Q105 58 103 57 Q99 56 92 55 Q70 52 59 50 Q59 28 56 29 Q50 38 47 46 Q47 46 47 47 Q51 52 51 69 L51 107 Q33 83 19 69 L16 71 Q55 118 67 159 Q54 157 39 154 Q36 153 36 153 Q30 157 23 162 Q95 167 104 175 Q105 175 105 175 ZM153 152 Q162 145 170 138 Q170 137 169 135 Q163 122 159 85 L162 85 Q162 85 163 84 Q177 74 177 72 Q177 71 176 70 Q171 62 171 26 Q170 0 174 -3 Q177 -9 201 -8 Q221 -8 225 -5 Q226 -3 226 37 L230 37 Q233 12 237 -7 Q238 -12 238 -13 Q231 -16 204 -17 Q154 -25 163 26 Q163 27 163 31 Q165 78 158 83 Q147 10 59 -23 L57 -20 Q149 20 152 100 Q156 131 151 145 Q151 148 150 150 L153 152 ZM91 107 L58 101 L59 58 L87 64 L91 107 Z" /><glyph glyph-name="uni8272" unicode="&#x8272;" d="M106 208 Q107 206 110 200 Q117 189 117 187 Q117 186 115 185 Q106 177 92 157 L150 168 Q152 168 157 176 Q159 179 159 179 Q166 174 172 164 Q172 164 169 162 Q148 148 123 116 L169 122 Q172 124 180 133 L192 121 Q192 121 190 119 Q184 114 183 109 Q180 93 177 73 Q189 64 185 63 Q168 61 121 55 Q87 51 74 49 Q73 3 81 -2 Q89 -11 114 -12 Q123 -12 137 -11 Q193 -10 208 -3 Q212 0 213 38 L216 38 Q217 18 221 -3 Q223 -13 222 -13 Q212 -19 155 -19 L123 -20 Q80 -21 72 -9 Q66 -1 66 34 Q66 51 65 107 Q65 110 63 119 L62 120 Q55 113 42 102 Q26 87 23 85 L20 88 Q99 164 103 207 Q103 208 104 208 Q106 208 106 208 ZM147 158 L84 147 L67 125 L74 110 L115 115 Q130 135 147 158 ZM174 114 L126 108 L126 64 L168 70 L174 114 ZM116 107 L73 101 L74 57 Q92 59 117 62 L116 107 Z" /><glyph glyph-name="uni82B1" unicode="&#x82b1;" d="M155 209 Q171 191 171 190 Q171 189 170 188 Q167 184 164 178 Q164 177 163 175 Q161 168 158 160 Q200 164 211 168 Q212 169 213 169 Q231 159 228 158 Q172 153 156 152 Q154 148 151 139 Q144 125 142 118 Q151 109 151 108 Q151 107 150 106 Q147 99 146 92 Q146 79 145 59 Q165 75 179 94 Q183 102 185 112 L187 112 Q196 97 196 93 Q196 92 194 91 Q190 88 185 84 Q162 62 145 49 Q145 38 145 22 Q140 -14 183 -7 Q213 -8 216 -3 Q218 -2 220 42 L225 42 Q228 5 233 -10 Q233 -12 233 -12 Q226 -17 179 -17 Q131 -20 136 18 Q136 25 136 43 Q116 28 95 19 L94 23 Q114 33 137 51 Q137 72 137 94 Q137 111 133 122 L135 124 L138 121 Q145 144 147 151 L99 147 L98 117 Q99 116 103 108 Q103 107 101 106 Q94 100 84 86 Q83 -3 83 -11 Q82 -30 81 -28 Q75 -22 70 -8 Q70 -7 71 -5 Q74 0 75 6 Q76 29 76 74 Q45 40 20 24 L17 27 Q60 60 81 99 Q83 102 85 106 Q90 114 90 120 Q88 124 88 128 Q88 128 88 129 Q91 132 91 146 Q58 143 38 138 Q36 138 36 138 Q35 138 32 140 Q19 148 22 148 Q24 148 28 148 Q50 149 91 153 Q90 165 90 173 Q89 191 84 200 L86 202 Q103 186 103 185 Q103 184 102 183 Q99 177 99 172 Q99 165 99 154 L149 159 Q152 172 154 184 Q155 195 153 207 L155 209 Z" /><glyph glyph-name="uni8981" unicode="&#x8981;" d="M204 199 Q215 192 218 186 Q218 186 209 185 Q182 184 149 182 Q148 180 147 169 Q147 160 146 152 Q158 153 169 154 Q172 155 174 155 Q178 158 182 163 Q184 165 184 165 Q192 160 196 155 Q196 155 194 153 Q191 150 190 148 Q187 140 184 113 Q192 107 193 105 Q193 104 183 104 Q157 103 126 100 Q130 89 130 88 Q130 87 129 87 Q124 82 116 70 Q196 76 217 81 Q219 82 220 82 Q233 75 235 70 Q234 70 225 69 Q200 69 168 67 Q153 36 139 20 Q189 3 191 1 Q201 -20 198 -20 Q198 -20 194 -18 Q170 -1 133 13 Q99 -13 41 -23 L40 -19 Q101 -4 123 17 Q105 25 87 29 Q83 30 83 30 Q83 30 86 36 Q95 49 101 60 Q54 57 39 52 Q37 52 37 52 Q26 56 22 61 Q22 62 38 63 Q75 65 106 69 Q118 93 118 99 Q119 100 96 97 Q80 94 75 94 Q75 79 74 80 Q68 83 62 94 Q62 95 63 96 Q67 102 66 122 Q66 124 65 133 Q63 152 61 162 Q63 163 64 163 L73 146 L101 148 Q101 149 100 158 Q100 170 99 178 Q61 175 51 172 Q50 172 50 172 Q44 175 38 182 Q38 183 43 183 Q70 182 113 186 Q114 186 116 186 Q119 187 121 187 Q188 192 202 198 Q203 199 204 199 ZM140 181 Q120 179 109 179 L110 150 L138 152 L140 181 ZM178 147 L146 145 Q144 119 143 109 Q174 110 176 114 L178 147 ZM137 144 L109 141 L110 106 L135 108 L137 144 ZM101 140 L73 137 Q74 102 75 102 L102 105 L101 140 ZM154 65 L112 61 L95 35 Q108 30 123 25 Q128 24 130 23 Q145 43 154 65 Z" /><glyph glyph-name="uni989C" unicode="&#x989c;" d="M83 211 Q97 198 102 191 Q100 180 93 177 Q92 177 90 183 Q86 198 80 209 L83 211 ZM221 182 Q233 174 231 171 Q197 169 178 166 L184 159 Q184 158 182 155 Q180 152 179 150 Q174 141 172 131 Q194 134 199 135 Q202 135 207 145 L220 135 Q220 134 218 133 Q212 129 212 124 Q210 53 207 26 L205 26 Q196 40 196 43 Q196 43 197 45 Q201 51 202 66 Q202 70 203 86 Q204 114 204 128 L150 121 L151 59 Q151 55 150 37 Q149 27 149 26 L147 26 Q140 36 139 42 Q139 43 140 44 Q144 52 144 61 Q144 88 143 123 Q143 128 141 141 L143 141 L150 127 L166 130 Q167 134 168 141 Q169 148 170 152 Q170 153 170 156 Q171 162 171 166 Q142 162 141 162 Q138 162 132 168 Q128 168 111 167 Q119 157 119 155 Q119 155 118 153 Q110 144 101 120 Q112 121 122 124 Q125 125 126 125 Q136 119 136 116 Q106 113 61 108 Q57 52 47 19 Q39 -4 21 -25 L18 -23 Q39 3 46 42 Q56 101 49 132 L52 132 Q52 131 53 130 Q56 122 60 115 Q86 118 93 119 Q106 143 107 166 Q77 163 56 160 Q52 159 51 159 Q45 162 42 167 Q69 168 85 171 Q111 173 122 177 Q124 178 124 178 Q126 178 133 169 Q191 174 218 181 Q220 182 221 182 ZM65 156 Q77 143 83 136 Q82 128 76 122 Q75 122 74 127 Q70 142 63 154 L65 156 ZM106 108 L108 108 Q114 95 114 93 Q114 92 108 88 Q104 86 102 84 Q84 70 62 55 L60 58 Q104 92 106 108 ZM172 108 Q184 99 184 97 Q184 96 183 94 Q180 88 180 81 Q181 5 109 -28 L107 -24 Q148 -2 163 32 Q169 47 171 69 Q173 95 170 107 L172 108 ZM118 62 Q118 61 112 58 Q108 56 106 55 Q81 36 63 27 L61 30 Q84 45 101 61 Q109 68 111 78 Q111 78 112 78 Q113 79 113 78 Q116 74 118 62 ZM116 46 L119 46 Q120 43 121 36 Q123 30 123 29 Q123 29 121 28 Q116 25 110 21 Q109 20 107 19 Q80 1 45 -13 L44 -10 Q79 7 99 23 Q114 36 116 46 ZM182 25 Q186 23 194 17 Q217 3 225 -2 Q228 -13 224 -23 Q223 -23 221 -19 Q207 0 180 22 L182 25 Z" /><glyph glyph-name="uniFF0C" unicode="&#xff0c;" d="M48 -34 L45 -32 Q72 -13 68 2 L64 2 Q46 3 45 18 Q46 33 64 34 Q82 34 83 8 Q78 -18 48 -34 Z" /></font>
</defs>
</svg>
